HIERARCHY
ROOT Hips
{
	OFFSET 0.000000 0.000000 0.000000
	CHANNELS 6 Xposition Yposition Zposition Zrotation Yrotation Xrotation 
	JOINT LHipJoint
	{
		OFFSET 0.000000 0.000000 0.000000
		CHANNELS 3 Zrotation Yrotation Xrotation
		JOINT LeftUpLeg
		{
			OFFSET 1.363060 -1.794630 0.839290
			CHANNELS 3 Zrotation Yrotation Xrotation
			JOINT LeftLeg
			{
				OFFSET 2.448110 -6.726130 0.000000
				CHANNELS 3 Zrotation Yrotation Xrotation
				JOINT LeftFoot
				{
					OFFSET 2.562200 -7.039590 0.000000
					CHANNELS 3 Zrotation Yrotation Xrotation
					JOINT LeftToeBase
					{
						OFFSET 0.157640 -0.433110 2.322550
						CHANNELS 3 Zrotation Yrotation Xrotation
						End Site
						{
							OFFSET 0.000000 0.000000 0.000000
						}
					}
				}
			}
		}
	}
	JOINT RHipJoint
	{
		OFFSET 0.000000 0.000000 0.000000
		CHANNELS 3 Zrotation Yrotation Xrotation
		JOINT RightUpLeg
		{
			OFFSET -1.305520 -1.794630 0.839290
			CHANNELS 3 Zrotation Yrotation Xrotation
			JOINT RightLeg
			{
				OFFSET -2.542530 -6.985550 0.000000
				CHANNELS 3 Zrotation Yrotation Xrotation
				JOINT RightFoot
				{
					OFFSET -2.568260 -7.056230 0.000000
					CHANNELS 3 Zrotation Yrotation Xrotation
					JOINT RightToeBase
					{
						OFFSET -0.164730 -0.452590 2.363150
						CHANNELS 3 Zrotation Yrotation Xrotation
						End Site
						{
							OFFSET 0.000000 0.000000 0.000000
						}
					}
				}
			}
		}
	}
	JOINT LowerBack
	{
		OFFSET 0.000000 0.000000 0.000000
		CHANNELS 3 Zrotation Yrotation Xrotation
		JOINT Spine
		{
			OFFSET 0.028270 2.035590 -0.193380
			CHANNELS 3 Zrotation Yrotation Xrotation
			JOINT Spine1
			{
				OFFSET 0.056720 2.048850 -0.042750
				CHANNELS 3 Zrotation Yrotation Xrotation
				JOINT Neck
				{
					OFFSET 0.000000 0.000000 0.000000
					CHANNELS 3 Zrotation Yrotation Xrotation
					JOINT Neck1
					{
						OFFSET -0.054170 1.746240 0.172020
						CHANNELS 3 Zrotation Yrotation Xrotation
						JOINT Head
						{
							OFFSET 0.104070 1.761360 -0.123970
							CHANNELS 3 Zrotation Yrotation Xrotation
							End Site
							{
								OFFSET 0.000000 0.000000 0.000000
							}
						}
					}
				}
				JOINT LeftShoulder
				{
					OFFSET 0.000000 0.000000 0.000000
					CHANNELS 3 Zrotation Yrotation Xrotation
					JOINT LeftArm
					{
						OFFSET 3.362410 1.200890 -0.311210
						CHANNELS 3 Zrotation Yrotation Xrotation
						JOINT LeftForeArm
						{
							OFFSET 4.983000 -0.000000 -0.000000
							CHANNELS 3 Zrotation Yrotation Xrotation
							JOINT LeftHand
							{
								OFFSET 3.483560 -0.000000 -0.000000
								CHANNELS 3 Zrotation Yrotation Xrotation
								JOINT LeftFingerBase
								{
									OFFSET 0.000000 0.000000 0.000000
									CHANNELS 3 Zrotation Yrotation Xrotation
									JOINT LeftHandIndex1
									{
										OFFSET 0.715260 -0.000000 -0.000000
										CHANNELS 3 Zrotation Yrotation Xrotation
										End Site
										{
											OFFSET 0.000000 0.000000 0.000000
										}
									}
								}
								JOINT LThumb
								{
									OFFSET 0.000000 0.000000 0.000000
									CHANNELS 3 Zrotation Yrotation Xrotation
									End Site
									{
										OFFSET 0.000000 0.000000 0.000000
									}
								}
							}
						}
					}
				}
				JOINT RightShoulder
				{
					OFFSET 0.000000 0.000000 0.000000
					CHANNELS 3 Zrotation Yrotation Xrotation
					JOINT RightArm
					{
						OFFSET -3.136600 1.374050 -0.404650
						CHANNELS 3 Zrotation Yrotation Xrotation
						JOINT RightForeArm
						{
							OFFSET -5.241900 -0.000000 -0.000000
							CHANNELS 3 Zrotation Yrotation Xrotation
							JOINT RightHand
							{
								OFFSET -3.444170 -0.000000 -0.000000
								CHANNELS 3 Zrotation Yrotation Xrotation
								JOINT RightFingerBase
								{
									OFFSET 0.000000 0.000000 0.000000
									CHANNELS 3 Zrotation Yrotation Xrotation
									JOINT RightHandIndex1
									{
										OFFSET -0.622530 -0.000000 -0.000000
										CHANNELS 3 Zrotation Yrotation Xrotation
										End Site
										{
											OFFSET 0.000000 0.000000 0.000000
										}
									}
								}
								JOINT RThumb
								{
									OFFSET 0.000000 0.000000 0.000000
									CHANNELS 3 Zrotation Yrotation Xrotation
									End Site
									{
										OFFSET 0.000000 0.000000 0.000000
									}
								}
							}
						}
					}
				}
			}
		}
	}
}
MOTION
Frames: 5
Frame Time: 0.033333
0.044624 26.828048 10.070933 3.405869 4.744237 10.603909 -7.487295 9.837744 3.862668 -8.182411 -23.957164 -25.317503 -9.478030 1.689130 44.270568 1.702677 -2.771447 34.631891 0.000000 0.000000 0.000000 10.832628 -7.909208 7.460507 -1.692493 7.765083 -17.865195 7.730113 -6.612798 22.299632 -0.390348 7.905759 -17.992973 0.000000 0.000000 0.000000 -0.536551 0.384643 -2.686126 0.468625 -0.719631 18.511192 -1.330113 0.196915 -18.398171 2.296285 -0.018432 -5.864060 1.052623 0.036213 1.222035 0.000000 0.000000 0.000000 -2.371045 15.391628 6.842863 -65.774915 -5.417710 12.481001 -47.488864 -34.607679 0.233333 -2.060072 -9.701921 0.115394 -2.048858 -9.708824 0.000000 0.000000 0.000000 0.000000 0.000000 0.000000 0.000000 -1.791875 -18.863645 7.460753 62.459005 6.872423 6.116215 27.395673 36.286314 0.148924 0.565797 8.019611 0.074063 0.560829 8.021564 0.000000 0.000000 0.000000 0.000000 0.000000 0.000000 0.000000 
0.040296 26.955170 10.272654 3.166451 4.176016 10.630031 -8.137144 8.943420 4.105848 -6.826745 -22.744071 -24.997704 -9.777030 2.078469 43.004125 1.613932 -1.006554 37.828442 0.000000 0.000000 0.000000 11.366392 -7.410437 7.515105 -2.120677 7.607716 -17.608777 7.689610 -6.575397 22.260458 -0.395732 7.633541 -17.319570 0.000000 0.000000 0.000000 -0.643101 0.464959 -2.976960 0.856728 -0.633553 18.905266 -1.228285 0.324956 -18.506190 2.284962 -0.020785 -6.251075 0.866710 0.029321 1.106112 0.000000 0.000000 0.000000 -2.316263 15.325474 7.038206 -65.886851 -5.148766 13.120675 -47.347163 -36.710331 0.256521 -2.077270 -10.039818 0.126891 -2.066320 -10.046963 0.000000 0.000000 0.000000 0.000000 0.000000 0.000000 0.000000 -1.697432 -18.777101 7.179000 62.206159 7.294634 5.371274 26.798463 33.736137 0.135103 0.553140 7.676439 0.067209 0.548584 7.678196 0.000000 0.000000 0.000000 0.000000 0.000000 0.000000 0.000000 
0.037006 27.074670 10.475278 3.049095 3.892419 10.667226 -8.447498 8.564803 4.147822 -6.320285 -22.062183 -24.717043 -9.794693 2.357633 42.392923 1.655237 0.234318 40.009034 0.000000 0.000000 0.000000 11.661237 -7.146040 7.542863 -2.377100 7.474203 -17.447288 7.638067 -6.600153 22.245971 -0.402705 7.610915 -17.370244 0.000000 0.000000 0.000000 -0.756950 0.486352 -3.009021 1.111213 -0.603941 18.814266 -1.099010 0.381070 -18.414436 2.165766 -0.009544 -6.305700 0.798317 0.027498 1.045574 0.000000 0.000000 0.000000 -2.263868 15.220338 7.240110 -65.974409 -4.907834 13.778140 -47.102519 -38.735247 0.280359 -2.084904 -10.368766 0.138713 -2.074310 -10.376154 0.000000 0.000000 0.000000 0.000000 0.000000 0.000000 0.000000 -1.482571 -18.753578 6.892394 61.893664 7.636162 4.768870 26.205339 31.517791 0.123622 0.543448 7.378471 0.061512 0.539241 7.380071 0.000000 0.000000 0.000000 0.000000 0.000000 0.000000 0.000000 
0.034678 27.185524 10.679885 2.933213 3.694820 10.646520 -8.609268 8.402131 4.172846 -6.069347 -21.574877 -24.479254 -9.729516 2.620634 42.062718 1.752586 1.202055 41.610594 0.000000 0.000000 0.000000 11.765385 -7.026306 7.521886 -2.423823 7.425237 -17.332185 7.566797 -6.645390 22.330879 -0.408338 7.877975 -18.048354 0.000000 0.000000 0.000000 -0.826997 0.496866 -3.035274 1.330382 -0.592792 18.816153 -0.971179 0.415010 -18.347971 2.061007 -0.000390 -6.374488 0.725641 0.025611 0.976182 0.000000 0.000000 0.000000 -2.226066 15.099671 7.429261 -66.064386 -4.687739 14.422187 -46.784150 -40.694412 0.304317 -2.085984 -10.683344 0.150597 -2.075842 -10.690969 0.000000 0.000000 0.000000 0.000000 0.000000 0.000000 0.000000 -1.274748 -18.723996 6.619943 61.603747 7.928905 4.277807 25.630932 29.619736 0.114459 0.533693 7.122285 0.056966 0.529794 7.123755 0.000000 0.000000 0.000000 0.000000 0.000000 0.000000 0.000000 
0.033288 27.287420 10.886963 2.863347 3.640465 10.563998 -8.526918 8.553907 4.154005 -6.262235 -21.430306 -24.332874 -9.548556 2.840807 42.165496 1.885088 1.778762 42.462864 0.000000 0.000000 0.000000 11.645940 -7.081621 7.465149 -2.265140 7.450411 -17.272845 7.484359 -6.714206 22.495193 -0.411272 8.395255 -19.278858 0.000000 0.000000 0.000000 -0.879716 0.479196 -3.052634 1.499772 -0.618606 18.924185 -0.838278 0.409176 -18.312339 1.976651 0.006184 -6.466442 0.648163 0.023568 0.898771 0.000000 0.000000 0.000000 -2.198091 14.959747 7.601677 -66.156009 -4.493908 15.047581 -46.399837 -42.570645 0.328058 -2.079975 -10.980487 0.162376 -2.070360 -10.988342 0.000000 0.000000 0.000000 0.000000 0.000000 0.000000 0.000000 -1.083436 -18.701140 6.366136 61.343419 8.174435 3.887308 25.106680 28.044702 0.107361 0.524619 6.908487 0.053443 0.520984 6.909854 0.000000 0.000000 0.000000 0.000000 0.000000 0.000000 0.000000 
